<?xml version="1.0" encoding="utf-8"?>
<!-- Generator: Adobe Illustrator 24.3.0, SVG Export Plug-In . SVG Version: 6.00 Build 0)  -->
<svg version="1.1" xmlns="http://www.w3.org/2000/svg" xmlns:xlink="http://www.w3.org/1999/xlink" x="0px" y="0px"
	 viewBox="0 0 148.17 130.96" style="enable-background:new 0 0 148.17 130.96;" xml:space="preserve">
<style type="text/css">
	.st0{fill:none;stroke:#000000;stroke-width:3;}
	.st1{stroke:#000000;}
	.st2{display:none;}
	.st3{display:inline;fill:none;stroke:#000000;stroke-width:3;}
	.st4{display:inline;fill:none;stroke:#000000;stroke-width:3;stroke-miterlimit:10;}
</style>
<g id="Слой_2">
	<polygon class="st0" points="4.54,4.93 139.93,4.93 72.24,127.02 	"/>
	<g>
		<path d="M36.8,40.39c4.27-5.16,9.65-9.41,15.61-12.65c2.98-1.64,6.16-2.92,9.44-3.91c3.29-0.95,6.72-1.53,10.17-1.65
			c3.45-0.06,6.92,0.31,10.27,1.13l2.49,0.7l2.42,0.9c0.82,0.27,1.58,0.67,2.35,1.03c0.76,0.39,1.56,0.71,2.28,1.17
			c5.96,3.36,11.05,7.98,15.11,13.28c-4.98-4.45-10.33-8.39-16.18-11.19c-5.86-2.78-12.25-4.22-18.65-4.02
			c-3.2,0.06-6.39,0.59-9.51,1.39c-3.13,0.77-6.17,1.94-9.15,3.26C47.53,32.56,41.93,36.13,36.8,40.39z"/>
	</g>
	<g>
		<path d="M108.02,55.99c-4.27,5.16-9.65,9.41-15.61,12.65c-2.98,1.64-6.16,2.92-9.44,3.91c-3.29,0.95-6.72,1.53-10.17,1.65
			c-3.45,0.06-6.92-0.31-10.27-1.13l-2.49-0.7l-2.42-0.9c-0.82-0.27-1.58-0.67-2.35-1.03c-0.76-0.39-1.56-0.71-2.28-1.17
			c-5.96-3.36-11.05-7.98-15.11-13.28c4.98,4.45,10.33,8.39,16.18,11.19c5.86,2.78,12.25,4.22,18.65,4.02
			c3.2-0.06,6.39-0.59,9.51-1.39c3.13-0.77,6.17-1.94,9.15-3.26C97.29,63.82,102.89,60.26,108.02,55.99z"/>
	</g>
	<circle class="st1" cx="72.95" cy="47.88" r="11.18"/>
</g>
<g id="Слой_3" class="st2">
	<path class="st3" d="M76.98,19.77C84.9,9,97.13,2.88,109.02,4.47c12.62,1.68,20.33,11.42,22.91,14.69
		c1.48,1.87,6.63,8.71,8.36,18.18c4.28,23.43-16.14,42.12-17.66,43.47l-45.65,46.43L23.76,74.03c-1.68-2.05-14.47-18.13-9.74-38.83
		c3.03-13.24,11.57-21.17,14.85-23.91c1.22-1.02,13.04-10.53,28.35-6.66C69.88,7.82,75.9,17.88,76.98,19.77z"/>
</g>
<g id="Слой_4" class="st2">
	<rect x="25.83" y="2.74" class="st4" width="94.7" height="63.32"/>
	<polygon class="st4" points="15.13,66.06 73.17,128.22 133.04,66.06 	"/>
	<polygon class="st4" points="113.43,86.42 113.43,123.52 92.61,123.52 92.61,108.04 	"/>
	<rect x="39.65" y="2.74" class="st4" width="32.09" height="49.57"/>
	<rect x="83.74" y="24.91" class="st4" width="25.57" height="25.54"/>
	<line class="st4" x1="96.52" y1="24.91" x2="96.52" y2="50.46"/>
	<line class="st4" x1="83.74" y1="37.68" x2="109.3" y2="37.68"/>
</g>
</svg>
